<svg width="61" height="61" viewBox="0 0 61 61" fill="none" xmlns="http://www.w3.org/2000/svg">
<path d="M46.7031 0H14.2969C6.40093 0 0 6.40093 0 14.2969V46.7031C0 54.5991 6.40093 61 14.2969 61H46.7031C54.5991 61 61 54.5991 61 46.7031V14.2969C61 6.40093 54.5991 0 46.7031 0Z" fill="url(#paint0_radial_325_124)"/>
<path d="M46.7031 0H14.2969C6.40093 0 0 6.40093 0 14.2969V46.7031C0 54.5991 6.40093 61 14.2969 61H46.7031C54.5991 61 61 54.5991 61 46.7031V14.2969C61 6.40093 54.5991 0 46.7031 0Z" fill="url(#paint1_radial_325_124)"/>
<path d="M30.5021 6.67188C24.0309 6.67188 23.2186 6.70023 20.6771 6.8158C18.1404 6.93208 16.4088 7.33358 14.8938 7.92285C13.3264 8.53142 11.997 9.34563 10.6726 10.6705C9.34706 11.9951 8.53285 13.3244 7.92238 14.8911C7.33144 16.4066 6.92946 18.1389 6.81532 20.6745C6.70166 23.2162 6.67188 24.0288 6.67188 30.5002C6.67188 36.9717 6.70047 37.7814 6.8158 40.3229C6.93255 42.8596 7.33406 44.5912 7.92285 46.1062C8.5319 47.6736 9.34611 49.003 10.6709 50.3274C11.9951 51.6529 13.3244 52.4691 14.8907 53.0776C16.4069 53.6669 18.1387 54.0684 20.6749 54.1847C23.2167 54.3002 24.0283 54.3286 30.4993 54.3286C36.9712 54.3286 37.7809 54.3002 40.3224 54.1847C42.8592 54.0684 44.5927 53.6669 46.1089 53.0776C47.6755 52.4691 49.003 51.6529 50.3269 50.3274C51.6525 49.003 52.4664 47.6736 53.0771 46.1069C53.6628 44.5912 54.0651 42.8592 54.1842 40.3234C54.2983 37.7819 54.3281 36.9717 54.3281 30.5002C54.3281 24.0288 54.2983 23.2167 54.1842 20.6749C54.0651 18.1382 53.6628 16.4069 53.0771 14.8919C52.4664 13.3244 51.6525 11.9951 50.3269 10.6705C49.0016 9.34515 47.676 8.53095 46.1074 7.92309C44.5884 7.33358 42.8558 6.93184 40.3191 6.8158C37.7773 6.70023 36.9681 6.67188 30.4948 6.67188H30.5021ZM28.3645 10.9659C28.9991 10.965 29.707 10.9659 30.5021 10.9659C36.8645 10.9659 37.6184 10.9888 40.1309 11.103C42.4541 11.2092 43.7151 11.5974 44.555 11.9236C45.6671 12.3554 46.4598 12.8717 47.2933 13.7059C48.1273 14.5399 48.6435 15.3341 49.0764 16.4462C49.4026 17.2849 49.7913 18.5459 49.897 20.8691C50.0112 23.3811 50.036 24.1355 50.036 30.4948C50.036 36.854 50.0112 37.6086 49.897 40.1204C49.7908 42.4436 49.4026 43.7046 49.0764 44.5436C48.6446 45.6556 48.1273 46.4474 47.2933 47.281C46.4594 48.1149 45.6676 48.6311 44.555 49.0631C43.716 49.3907 42.4541 49.7779 40.1309 49.8842C37.6189 49.9983 36.8645 50.0231 30.5021 50.0231C24.1396 50.0231 23.3854 49.9983 20.8737 49.8842C18.5504 49.777 17.2894 49.3888 16.4488 49.0626C15.337 48.6306 14.5425 48.1145 13.7086 47.2805C12.8746 46.4465 12.3585 45.6542 11.9255 44.5417C11.5993 43.7027 11.2107 42.4417 11.1049 40.1185C10.9907 37.6065 10.9678 36.8521 10.9678 30.4888C10.9678 24.1257 10.9907 23.3752 11.1049 20.8632C11.2111 18.5399 11.5993 17.279 11.9255 16.439C12.3575 15.327 12.8746 14.5328 13.7088 13.6988C14.5428 12.8648 15.337 12.3484 16.449 11.9157C17.289 11.5881 18.5504 11.2009 20.8737 11.0941C23.0718 10.9948 23.9237 10.965 28.3645 10.96V10.9659ZM43.2216 14.9224C41.643 14.9224 40.3622 16.2019 40.3622 17.7808C40.3622 19.3594 41.643 20.6402 43.2216 20.6402C44.8002 20.6402 46.081 19.3594 46.081 17.7808C46.081 16.2022 44.8002 14.9214 43.2216 14.9214V14.9224ZM30.5021 18.2633C23.7445 18.2633 18.2654 23.7423 18.2654 30.5002C18.2654 37.2581 23.7445 42.7346 30.5021 42.7346C37.26 42.7346 42.7372 37.2581 42.7372 30.5002C42.7372 23.7426 37.2596 18.2633 30.5017 18.2633H30.5021ZM30.5021 22.5574C34.8887 22.5574 38.445 26.1132 38.445 30.5002C38.445 34.8868 34.8887 38.4431 30.5021 38.4431C26.1154 38.4431 22.5595 34.8868 22.5595 30.5002C22.5595 26.1132 26.1154 22.5574 30.5021 22.5574Z" fill="white"/>
<defs>
<radialGradient id="paint0_radial_325_124" cx="0" cy="0" r="1" gradientUnits="userSpaceOnUse" gradientTransform="translate(16.2031 65.6982) rotate(-90) scale(60.4555 56.2284)">
<stop stop-color="#FFDD55"/>
<stop offset="0.1" stop-color="#FFDD55"/>
<stop offset="0.5" stop-color="#FF543E"/>
<stop offset="1" stop-color="#C837AB"/>
</radialGradient>
<radialGradient id="paint1_radial_325_124" cx="0" cy="0" r="1" gradientUnits="userSpaceOnUse" gradientTransform="translate(-10.2177 4.39414) rotate(78.681) scale(27.024 111.394)">
<stop stop-color="#3771C8"/>
<stop offset="0.128" stop-color="#3771C8"/>
<stop offset="1" stop-color="#6600FF" stop-opacity="0"/>
</radialGradient>
</defs>
</svg>
