<svg width="69" height="69" viewBox="0 0 69 69" fill="none" xmlns="http://www.w3.org/2000/svg">
<g filter="url(#filter0_d_325_119)">
<path d="M50.7031 0H18.2969C10.4009 0 4 6.40093 4 14.2969V46.7031C4 54.5991 10.4009 61 18.2969 61H50.7031C58.5991 61 65 54.5991 65 46.7031V14.2969C65 6.40093 58.5991 0 50.7031 0Z" fill="white"/>
<path d="M50.7031 0H18.2969C10.4009 0 4 6.40093 4 14.2969V46.7031C4 54.5991 10.4009 61 18.2969 61H50.7031C58.5991 61 65 54.5991 65 46.7031V14.2969C65 6.40093 58.5991 0 50.7031 0Z" fill="#1D9BF0"/>
<path d="M51.5543 21.7815C51.5805 22.1597 51.5805 22.5378 51.5805 22.9195C51.5805 34.547 42.7288 47.9569 26.5431 47.9569V47.9498C21.7615 47.9567 17.079 46.5873 13.0547 44.0051C13.75 44.0887 14.4486 44.1304 15.1492 44.1321C19.1122 44.1352 22.9612 42.8059 26.0777 40.3579C24.2415 40.3232 22.462 39.7155 20.9881 38.6199C19.5142 37.5243 18.4195 35.9955 17.857 34.2472C19.1754 34.5014 20.5345 34.4495 21.8296 34.0957C17.7245 33.2662 14.771 29.6593 14.771 25.4703V25.3588C15.9948 26.0405 17.3644 26.4182 18.7646 26.4602C14.8983 23.876 13.7064 18.7322 16.0411 14.7105C18.2502 17.4291 21.0066 19.6525 24.1311 21.2363C27.2555 22.8202 30.6783 23.729 34.1769 23.9039C33.8281 22.4023 33.8796 20.8355 34.3263 19.3601C34.773 17.8847 35.5993 16.5525 36.7224 15.4966C40.2666 12.165 45.8408 12.3358 49.1724 15.8781C51.143 15.489 53.0327 14.7666 54.7603 13.7419C54.1034 15.7794 52.7288 17.5088 50.8921 18.6086C52.6365 18.403 54.34 17.9361 55.9453 17.2234C54.7644 18.992 53.2774 20.5353 51.5543 21.7815Z" fill="white"/>
</g>
<defs>
<filter id="filter0_d_325_119" x="0" y="0" width="69" height="69" filterUnits="userSpaceOnUse" color-interpolation-filters="sRGB">
<feFlood flood-opacity="0" result="BackgroundImageFix"/>
<feColorMatrix in="SourceAlpha" type="matrix" values="0 0 0 0 0 0 0 0 0 0 0 0 0 0 0 0 0 0 127 0" result="hardAlpha"/>
<feOffset dy="4"/>
<feGaussianBlur stdDeviation="2"/>
<feComposite in2="hardAlpha" operator="out"/>
<feColorMatrix type="matrix" values="0 0 0 0 0 0 0 0 0 0 0 0 0 0 0 0 0 0 0.25 0"/>
<feBlend mode="normal" in2="BackgroundImageFix" result="effect1_dropShadow_325_119"/>
<feBlend mode="normal" in="SourceGraphic" in2="effect1_dropShadow_325_119" result="shape"/>
</filter>
</defs>
</svg>
